<svg width="14" height="14" viewBox="0 0 14 14" fill="none" xmlns="http://www.w3.org/2000/svg">
<path d="M9.16656 9.16667H11.1888C11.9977 9.16667 12.4021 9.16664 12.711 9.00921C12.9828 8.87073 13.2041 8.64981 13.3426 8.37802C13.5 8.06904 13.5 7.66456 13.5 6.85559V2.81113C13.5 2.00217 13.5 1.59768 13.3426 1.2887C13.2041 1.01691 12.9828 0.795919 12.711 0.657435C12.4021 0.5 11.9979 0.5 11.1889 0.5H7.14451C6.33555 0.5 5.93077 0.5 5.62179 0.657435C5.35001 0.795919 5.1292 1.01691 4.99071 1.2887C4.83328 1.59768 4.83328 2.0022 4.83328 2.81116V4.83339M0.5 11.1889V7.1445C0.5 6.33553 0.5 5.93101 0.657433 5.62203C0.795915 5.35024 1.01672 5.12925 1.28851 4.99077C1.59749 4.83333 2.00227 4.83333 2.81122 4.83333H6.85562C7.66458 4.83333 8.06877 4.83333 8.37775 4.99077C8.64954 5.12925 8.8708 5.35024 9.00928 5.62203C9.16672 5.93101 9.16672 6.3355 9.16672 7.14446V11.1889C9.16672 11.9979 9.16672 12.4024 9.00928 12.7114C8.8708 12.9831 8.64954 13.2041 8.37775 13.3425C8.06877 13.5 7.66458 13.5 6.85562 13.5H2.81122C2.00227 13.5 1.59749 13.5 1.28851 13.3425C1.01672 13.2041 0.795915 12.9831 0.657433 12.7114C0.5 12.4024 0.5 11.9979 0.5 11.1889Z" stroke="#E64500" stroke-linecap="round" stroke-linejoin="round"/>
</svg>
