<svg width="37" height="37" viewBox="0 0 37 37" fill="none" xmlns="http://www.w3.org/2000/svg">
<circle cx="18.5" cy="18.5" r="18.25" fill="url(#paint0_radial_137_234)" stroke="url(#paint1_radial_137_234)" stroke-width="0.5"/>
<path d="M20.4655 18.311L20.7446 18.7792C20.9095 18.6809 21.0106 18.503 21.0106 18.311C21.0106 18.119 20.9095 17.9411 20.7446 17.8428L20.4655 18.311ZM16.5384 20.6522H15.9933C15.9933 20.8483 16.0986 21.0293 16.2691 21.1262C16.4396 21.2231 16.649 21.2209 16.8175 21.1205L16.5384 20.6522ZM16.5384 15.9698L16.8175 15.5016C16.649 15.4012 16.4396 15.399 16.2691 15.4958C16.0986 15.5927 15.9933 15.7737 15.9933 15.9698H16.5384ZM8.01544 11.3087L7.61662 10.9371L7.61662 10.9371L8.01544 11.3087ZM13.8309 10.0761L13.8149 9.53122L13.8148 9.53122L13.8309 10.0761ZM22.6097 10.0761L22.6258 9.53122L22.6257 9.53122L22.6097 10.0761ZM28.4252 25.3139L28.8238 25.6857L28.8242 25.6853L28.4252 25.3139ZM22.6097 26.5454L22.5937 26.0005L22.5933 26.0005L22.6097 26.5454ZM13.8309 26.5454L13.8473 26.0005L13.8469 26.0005L13.8309 26.5454ZM20.4655 18.311L20.1863 17.8428L16.2592 20.184L16.5384 20.6522L16.8175 21.1205L20.7446 18.7792L20.4655 18.311ZM16.5384 20.6522H17.0835V15.9698H16.5384H15.9933V20.6522H16.5384ZM16.5384 15.9698L16.2592 16.438L20.1863 18.7792L20.4655 18.311L20.7446 17.8428L16.8175 15.5016L16.5384 15.9698ZM7 19.1401H7.5451V17.4825H7H6.4549V19.1401H7ZM7 17.4825H7.5451C7.5451 15.7734 7.54617 14.5439 7.66755 13.6033C7.78706 12.6772 8.01514 12.1087 8.41426 11.6803L8.01544 11.3087L7.61662 10.9371C7.0003 11.5986 6.72066 12.4226 6.58631 13.4637C6.45383 14.4903 6.4549 15.8028 6.4549 17.4825H7ZM8.01544 11.3087L8.41425 11.6803C8.81236 11.2531 9.33775 11.0044 10.1975 10.856C11.0774 10.7042 12.2315 10.6688 13.8471 10.621L13.8309 10.0761L13.8148 9.53122C12.2315 9.57816 10.9861 9.61363 10.0121 9.78168C9.01797 9.95321 8.23507 10.2734 7.61662 10.9371L8.01544 11.3087ZM13.8309 10.0761L13.8469 10.621C15.3591 10.5766 16.9016 10.5451 18.2203 10.5451V10V9.4549C16.8865 9.4549 15.3322 9.48666 13.8149 9.53122L13.8309 10.0761ZM18.2203 10V10.5451C19.539 10.5451 21.0803 10.5766 22.5937 10.621L22.6097 10.0761L22.6257 9.53122C21.1073 9.48666 19.5541 9.4549 18.2203 9.4549V10ZM22.6097 10.0761L22.5935 10.621C24.2091 10.6688 25.3632 10.7042 26.243 10.856C27.1026 11.0043 27.6275 11.253 28.025 11.6801L28.424 11.3087L28.823 10.9374C28.2051 10.2734 27.4223 9.95321 26.4284 9.78168C25.4545 9.61363 24.2091 9.57815 22.6258 9.53122L22.6097 10.0761ZM28.424 11.3087L28.025 11.6801C28.4244 12.1092 28.6527 12.6783 28.7725 13.6043C28.8941 14.5448 28.8955 15.7741 28.8955 17.4825H29.4406H29.9857C29.9857 15.8033 29.9865 14.4911 29.8537 13.4644C29.719 12.4233 29.4391 11.5993 28.823 10.9374L28.424 11.3087ZM29.4406 17.4825H28.8955V19.139H29.4406H29.9857V17.4825H29.4406ZM29.4406 19.139H28.8955C28.8955 20.8487 28.8944 22.0782 28.773 23.0188C28.6535 23.9448 28.4255 24.5135 28.0261 24.9425L28.4252 25.3139L28.8242 25.6853C29.4403 25.0233 29.7199 24.1996 29.8543 23.1584C29.9868 22.1318 29.9857 20.8193 29.9857 19.139H29.4406ZM28.4252 25.3139L28.0265 24.9421C27.6283 25.369 27.1031 25.6177 26.2435 25.7661C25.3638 25.9179 24.2097 25.9532 22.5937 26.0005L22.6097 26.5454L22.6256 27.0903C24.2097 27.0439 25.455 27.0085 26.4289 26.8404C27.423 26.6689 28.2054 26.3487 28.8238 25.6857L28.4252 25.3139ZM22.6097 26.5454L22.5933 26.0005C21.0814 26.0461 19.5389 26.0776 18.2203 26.0776V26.6227V27.1678C19.5541 27.1678 21.1085 27.136 22.6261 27.0903L22.6097 26.5454ZM18.2203 26.6227V26.0776C16.9017 26.0776 15.3604 26.0461 13.8473 26.0005L13.8309 26.5454L13.8145 27.0903C15.3332 27.136 16.8865 27.1678 18.2203 27.1678V26.6227ZM13.8309 26.5454L13.8469 26.0005C12.2313 25.9532 11.0773 25.9182 10.1974 25.7665C9.33772 25.6183 8.81235 25.3696 8.41425 24.9423L8.01544 25.3139L7.61662 25.6855C8.23508 26.3493 9.018 26.6695 10.0122 26.8409C10.9862 27.0088 12.2316 27.0439 13.815 27.0903L13.8309 26.5454ZM8.01544 25.3139L8.41425 24.9423C8.01457 24.5134 7.78651 23.9446 7.66714 23.0186C7.54589 22.078 7.5451 20.8488 7.5451 19.1401H7H6.4549C6.4549 20.8192 6.45355 22.1314 6.58588 23.158C6.72009 24.1992 6.99974 25.0235 7.61662 25.6855L8.01544 25.3139Z" fill="white" fill-opacity="0.8"/>
<defs>
<radialGradient id="paint0_radial_137_234" cx="0" cy="0" r="1" gradientUnits="userSpaceOnUse" gradientTransform="translate(18.5 18.5) rotate(90) scale(18.5)">
<stop stop-color="#666666"/>
<stop offset="1"/>
</radialGradient>
<radialGradient id="paint1_radial_137_234" cx="0" cy="0" r="1" gradientUnits="userSpaceOnUse" gradientTransform="translate(18.5 18.5) rotate(90) scale(18.5)">
<stop/>
<stop offset="1" stop-color="#666666"/>
</radialGradient>
</defs>
</svg>
